<?xml version="1.0" standalone="no"?>
<!DOCTYPE svg PUBLIC "-//W3C//DTD SVG 20010904//EN"
 "http://www.w3.org/TR/2001/REC-SVG-20010904/DTD/svg10.dtd">
<svg version="1.0" xmlns="http://www.w3.org/2000/svg"
 width="16.000000pt" height="16.000000pt" viewBox="0 0 16.000000 16.000000"
 preserveAspectRatio="xMidYMid meet">
<metadata>
Created by potrace 1.11, written by Peter Selinger 2001-2013
</metadata>
<g transform="translate(0.000000,16.000000) scale(0.001778,-0.001778)"
fill="#000000" stroke="none">
<path d="M4378 8995 c-2 -2 -35 -6 -73 -10 -231 -20 -433 -61 -670 -135 -55
-18 -104 -36 -110 -41 -5 -5 -15 -9 -23 -9 -42 0 -459 -214 -470 -242 -2 -4
-8 -8 -14 -8 -30 0 -233 -165 -358 -290 -140 -141 -218 -243 -357 -465 -25
-39 -131 -261 -155 -325 -14 -36 -29 -74 -33 -85 -4 -11 -9 -24 -11 -30 -1 -5
-14 -48 -28 -95 -15 -47 -28 -94 -31 -105 -2 -11 -9 -40 -16 -65 -10 -44 -13
-57 -24 -110 -2 -14 -7 -37 -11 -52 -3 -16 -2 -29 3 -29 4 -1 24 -3 43 -5 19
-2 51 -6 70 -9 19 -4 58 -8 85 -10 28 -2 64 -6 80 -8 17 -3 62 -8 100 -12 39
-4 84 -9 100 -11 17 -2 55 -6 85 -9 30 -3 71 -8 90 -10 19 -3 60 -7 90 -10 30
-2 78 -7 105 -11 28 -3 64 -8 80 -9 77 -9 151 -17 159 -18 10 -2 21 32 30 90
15 95 65 258 112 360 8 17 14 36 14 42 0 6 5 11 10 11 6 0 9 3 8 8 -3 9 45
106 55 110 4 2 7 8 7 14 0 13 99 158 122 179 10 9 18 20 18 24 0 10 163 170
210 207 68 53 135 98 147 98 7 0 13 4 13 8 0 5 24 19 53 32 28 12 77 34 107
47 30 14 105 38 165 53 165 43 237 52 425 53 207 1 345 -18 500 -69 85 -29
229 -95 251 -115 8 -8 27 -20 42 -28 48 -25 169 -138 236 -221 20 -25 39 -46
44 -48 4 -2 7 -8 7 -12 0 -8 34 -65 57 -95 13 -17 60 -116 83 -175 48 -120 84
-279 95 -415 7 -81 7 -276 1 -320 -12 -85 -23 -145 -36 -195 -5 -19 -10 -38
-10 -42 -1 -11 -28 -89 -39 -113 -36 -77 -123 -254 -133 -270 -142 -222 -247
-356 -418 -535 -67 -70 -273 -283 -549 -565 -205 -210 -307 -319 -356 -379
-22 -27 -48 -57 -57 -67 -10 -11 -18 -22 -18 -25 0 -3 -14 -23 -30 -44 -16
-21 -30 -41 -30 -46 0 -4 -6 -15 -14 -23 -41 -46 -152 -317 -170 -414 -29
-160 -36 -207 -42 -297 -8 -110 -12 -294 -7 -303 3 -4 34 21 70 55 35 35 104
101 153 148 48 47 163 158 256 247 93 89 210 202 260 250 51 48 174 167 274
263 100 96 219 211 265 255 45 44 156 151 246 237 90 86 219 210 286 275 67
65 197 190 289 278 92 88 198 189 234 225 37 36 147 142 245 235 331 318 330
316 345 365 7 25 14 50 16 57 1 6 7 27 13 45 6 18 12 44 15 58 3 14 7 36 10
50 3 13 8 40 11 60 3 20 7 47 10 60 19 97 26 493 11 625 -24 222 -84 468 -146
602 -11 24 -20 45 -20 48 0 14 -104 212 -140 266 -22 33 -40 63 -40 65 0 3 -5
10 -10 17 -6 7 -33 41 -61 77 -28 36 -56 68 -62 72 -7 4 -9 8 -5 8 10 0 -179
187 -222 219 -19 14 -44 34 -55 44 -86 77 -361 233 -525 296 -47 18 -95 37
-107 41 -26 11 -217 67 -253 74 -14 3 -47 11 -75 16 -27 6 -61 13 -75 16 -14
2 -50 8 -80 14 -73 13 -115 19 -175 25 -56 6 -562 15 -567 10z"/>
</g>
</svg>
